HIERARCHY
ROOT Hips
{
	OFFSET 0.000000 97.167313 0.000000
	CHANNELS 6 Xposition Yposition Zposition Xrotation Yrotation Zrotation
	JOINT Spine
	{
		OFFSET 0.000000 13.784798 0.064400
		CHANNELS 3 Xrotation Yrotation Zrotation
		JOINT Spine1
		{
			OFFSET 0.000000 12.037903 0.404700
			CHANNELS 3 Xrotation Yrotation Zrotation
			JOINT Spine2
			{
				OFFSET 0.000000 17.795601 0.420200
				CHANNELS 3 Xrotation Yrotation Zrotation
				JOINT Neck
				{
					OFFSET 0.000000 39.131302 11.954600
					CHANNELS 3 Xrotation Yrotation Zrotation
					JOINT Head
					{
						OFFSET 0.000000 14.456192 15.627699
						CHANNELS 3 Xrotation Yrotation Zrotation
						JOINT HeadTop_End
						{
							OFFSET 0.000000 15.703506 7.603401
							CHANNELS 3 Xrotation Yrotation Zrotation
							End Site
							{
								OFFSET 0.000000 17.447403 0.000000
							}
						}
					}
				}
				JOINT LeftShoulder
				{
					OFFSET 17.399500 24.608795 1.168800
					CHANNELS 3 Xrotation Yrotation Zrotation
					JOINT LeftArm
					{
						OFFSET 18.980635 5.765305 1.818600
						CHANNELS 3 Xrotation Yrotation Zrotation
						JOINT LeftForeArm
						{
							OFFSET 49.290169 0.000000 0.000000
							CHANNELS 3 Xrotation Yrotation Zrotation
							JOINT LeftHand
							{
								OFFSET 31.562012 0.000000 0.000000
								CHANNELS 3 Xrotation Yrotation Zrotation
								JOINT LeftHandThumb1
								{
									OFFSET 6.133995 -4.388519 7.076070
									CHANNELS 3 Xrotation Yrotation Zrotation
									JOINT LeftHandThumb2
									{
										OFFSET 6.037666 -3.485840 3.485847
										CHANNELS 3 Xrotation Yrotation Zrotation
										JOINT LeftHandThumb3
										{
											OFFSET 6.496506 -3.750763 3.750761
											CHANNELS 3 Xrotation Yrotation Zrotation
											JOINT LeftHandThumb4
											{
												OFFSET 5.616882 -3.242905 3.242910
												CHANNELS 3 Xrotation Yrotation Zrotation
												End Site
												{
													OFFSET -1.254608 7.132141 0.375429
												}
											}
										}
									}
								}
								JOINT LeftHandPinky1
								{
									OFFSET 18.920792 -0.453171 -11.426712
									CHANNELS 3 Xrotation Yrotation Zrotation
									JOINT LeftHandPinky2
									{
										OFFSET 4.919586 0.000000 0.000000
										CHANNELS 3 Xrotation Yrotation Zrotation
										JOINT LeftHandPinky3
										{
											OFFSET 5.233047 0.000000 0.000000
											CHANNELS 3 Xrotation Yrotation Zrotation
											JOINT LeftHandPinky4
											{
												OFFSET 5.571716 0.000000 0.000000
												CHANNELS 3 Xrotation Yrotation Zrotation
												End Site
												{
													OFFSET -3.459808 4.342407 -0.466164
												}
											}
										}
									}
								}
								JOINT LeftHandRing1
								{
									OFFSET 22.726120 -0.094986 -6.500475
									CHANNELS 3 Xrotation Yrotation Zrotation
									JOINT LeftHandRing2
									{
										OFFSET 6.408615 0.000000 0.000000
										CHANNELS 3 Xrotation Yrotation Zrotation
										JOINT LeftHandRing3
										{
											OFFSET 6.150223 0.000000 0.000000
											CHANNELS 3 Xrotation Yrotation Zrotation
											JOINT LeftHandRing4
											{
												OFFSET 6.145386 0.000000 0.000000
												CHANNELS 3 Xrotation Yrotation Zrotation
												End Site
												{
													OFFSET -3.671402 4.923981 -0.202372
												}
											}
										}
									}
								}
								JOINT LeftHandMiddle1
								{
									OFFSET 23.373947 0.000000 0.000001
									CHANNELS 3 Xrotation Yrotation Zrotation
									JOINT LeftHandMiddle2
									{
										OFFSET 6.996567 0.000000 0.000000
										CHANNELS 3 Xrotation Yrotation Zrotation
										JOINT LeftHandMiddle3
										{
											OFFSET 7.015945 0.000000 0.000000
											CHANNELS 3 Xrotation Yrotation Zrotation
											JOINT LeftHandMiddle4
											{
												OFFSET 7.721573 0.000000 0.000000
												CHANNELS 3 Xrotation Yrotation Zrotation
												End Site
												{
													OFFSET -4.651108 6.158463 0.251582
												}
											}
										}
									}
								}
								JOINT LeftHandIndex1
								{
									OFFSET 21.310577 -0.490082 6.209344
									CHANNELS 3 Xrotation Yrotation Zrotation
									JOINT LeftHandIndex2
									{
										OFFSET 7.536453 0.000000 0.000000
										CHANNELS 3 Xrotation Yrotation Zrotation
										JOINT LeftHandIndex3
										{
											OFFSET 7.512344 0.000000 0.000000
											CHANNELS 3 Xrotation Yrotation Zrotation
											JOINT LeftHandIndex4
											{
												OFFSET 10.212402 0.000000 0.000001
												CHANNELS 3 Xrotation Yrotation Zrotation
												End Site
												{
													OFFSET -5.180801 8.690506 1.388433
												}
											}
										}
									}
								}
							}
						}
					}
				}
				JOINT RightShoulder
				{
					OFFSET -17.399500 24.608795 1.168800
					CHANNELS 3 Xrotation Yrotation Zrotation
					JOINT RightArm
					{
						OFFSET -18.980635 5.765305 1.818600
						CHANNELS 3 Xrotation Yrotation Zrotation
						JOINT RightForeArm
						{
							OFFSET -49.290169 0.000000 0.000000
							CHANNELS 3 Xrotation Yrotation Zrotation
							JOINT RightHand
							{
								OFFSET -31.562012 0.000000 0.000000
								CHANNELS 3 Xrotation Yrotation Zrotation
								JOINT RightHandThumb1
								{
									OFFSET -6.133995 -4.388519 7.076070
									CHANNELS 3 Xrotation Yrotation Zrotation
									JOINT RightHandThumb2
									{
										OFFSET -6.037666 -3.485840 3.485847
										CHANNELS 3 Xrotation Yrotation Zrotation
										JOINT RightHandThumb3
										{
											OFFSET -6.496506 -3.750763 3.750761
											CHANNELS 3 Xrotation Yrotation Zrotation
											JOINT RightHandThumb4
											{
												OFFSET -5.616882 -3.242905 3.242910
												CHANNELS 3 Xrotation Yrotation Zrotation
												End Site
												{
													OFFSET 1.254608 7.132141 0.375429
												}
											}
										}
									}
								}
								JOINT RightHandIndex1
								{
									OFFSET -21.310577 -0.490082 6.209344
									CHANNELS 3 Xrotation Yrotation Zrotation
									JOINT RightHandIndex2
									{
										OFFSET -7.536453 0.000000 0.000000
										CHANNELS 3 Xrotation Yrotation Zrotation
										JOINT RightHandIndex3
										{
											OFFSET -7.512344 0.000000 0.000000
											CHANNELS 3 Xrotation Yrotation Zrotation
											JOINT RightHandIndex4
											{
												OFFSET -10.212402 0.000000 0.000001
												CHANNELS 3 Xrotation Yrotation Zrotation
												End Site
												{
													OFFSET 5.180801 8.690506 1.388433
												}
											}
										}
									}
								}
								JOINT RightHandMiddle1
								{
									OFFSET -23.373947 0.000000 0.000001
									CHANNELS 3 Xrotation Yrotation Zrotation
									JOINT RightHandMiddle2
									{
										OFFSET -6.996567 0.000000 0.000000
										CHANNELS 3 Xrotation Yrotation Zrotation
										JOINT RightHandMiddle3
										{
											OFFSET -7.015945 0.000000 0.000000
											CHANNELS 3 Xrotation Yrotation Zrotation
											JOINT RightHandMiddle4
											{
												OFFSET -7.721573 0.000000 0.000000
												CHANNELS 3 Xrotation Yrotation Zrotation
												End Site
												{
													OFFSET 4.651108 6.158463 0.251582
												}
											}
										}
									}
								}
								JOINT RightHandRing1
								{
									OFFSET -22.726120 -0.094986 -6.500475
									CHANNELS 3 Xrotation Yrotation Zrotation
									JOINT RightHandRing2
									{
										OFFSET -6.408615 0.000000 0.000000
										CHANNELS 3 Xrotation Yrotation Zrotation
										JOINT RightHandRing3
										{
											OFFSET -6.150223 0.000000 0.000000
											CHANNELS 3 Xrotation Yrotation Zrotation
											JOINT RightHandRing4
											{
												OFFSET -6.145386 0.000000 0.000000
												CHANNELS 3 Xrotation Yrotation Zrotation
												End Site
												{
													OFFSET 3.671402 4.923981 -0.202372
												}
											}
										}
									}
								}
								JOINT RightHandPinky1
								{
									OFFSET -18.920792 -0.453171 -11.426712
									CHANNELS 3 Xrotation Yrotation Zrotation
									JOINT RightHandPinky2
									{
										OFFSET -4.919586 0.000000 0.000000
										CHANNELS 3 Xrotation Yrotation Zrotation
										JOINT RightHandPinky3
										{
											OFFSET -5.233047 0.000000 0.000000
											CHANNELS 3 Xrotation Yrotation Zrotation
											JOINT RightHandPinky4
											{
												OFFSET -5.571716 0.000000 0.000000
												CHANNELS 3 Xrotation Yrotation Zrotation
												End Site
												{
													OFFSET 3.459808 4.342407 -0.466164
												}
											}
										}
									}
								}
							}
						}
					}
				}
			}
		}
	}
	JOINT LeftUpLeg
	{
		OFFSET 19.899099 -7.885101 -3.429500
		CHANNELS 3 Xrotation Yrotation Zrotation
		JOINT LeftLeg
		{
			OFFSET 1.745560 -36.997807 10.304700
			CHANNELS 3 Xrotation Yrotation Zrotation
			JOINT LeftFoot
			{
				OFFSET -1.745558 -29.803308 -13.615400
				CHANNELS 3 Xrotation Yrotation Zrotation
				JOINT LeftToeBase
				{
					OFFSET 1.181900 -18.539904 15.226099
					CHANNELS 3 Xrotation Yrotation Zrotation
					JOINT LeftToe_End
					{
						OFFSET -0.863701 1.402801 16.534700
						CHANNELS 3 Xrotation Yrotation Zrotation
						End Site
						{
							OFFSET 0.000000 16.616566 0.000000
						}
					}
				}
			}
		}
	}
	JOINT RightUpLeg
	{
		OFFSET -19.899099 -7.885101 -3.429500
		CHANNELS 3 Xrotation Yrotation Zrotation
		JOINT RightLeg
		{
			OFFSET -1.745560 -36.997807 10.304700
			CHANNELS 3 Xrotation Yrotation Zrotation
			JOINT RightFoot
			{
				OFFSET 1.745558 -29.803308 -13.615400
				CHANNELS 3 Xrotation Yrotation Zrotation
				JOINT RightToeBase
				{
					OFFSET -1.181900 -18.539904 15.226099
					CHANNELS 3 Xrotation Yrotation Zrotation
					JOINT RightToe_End
					{
						OFFSET 0.863701 1.402801 16.534700
						CHANNELS 3 Xrotation Yrotation Zrotation
						End Site
						{
							OFFSET 0.000000 16.616566 0.000000
						}
					}
				}
			}
		}
	}
}
MOTION
Frames: 4
Frame Time: 0.033333
10.874035 59.814362 12.234456 -18.245722 53.869231 24.685811 11.446612 15.132942 1.902259 7.395206 18.804283 1.563303 -5.073085 18.067208 5.527635 22.553090 -25.373641 23.591161 -29.309250 -24.332983 0.580731 -0.000002 0.000001 -0.000003 -9.057047 30.461199 15.653103 37.966843 27.946921 -57.309433 -41.195726 5.463829 -11.959181 -0.429153 9.277583 27.917531 18.457987 -9.513803 13.216587 -1.150238 11.255251 -8.400969 5.706379 8.483162 -0.820554 -0.000001 0.000007 -0.000001 2.010452 6.305950 -22.386536 -0.821104 -0.210172 -16.746451 -2.234685 0.020141 -34.673869 0.000000 -0.000003 0.000001 3.024656 7.938984 -14.103486 -0.701795 -0.566366 -18.895882 -0.728763 -0.703934 -22.058531 -0.000003 -0.000001 0.000001 1.884632 4.663358 -4.597407 0.465308 -1.003112 -12.986905 0.630523 -1.350190 -16.553819 0.000000 -0.000000 0.000006 -1.229944 -5.774845 -0.191972 0.132060 -0.195494 -4.602208 0.051518 -0.448548 -7.568150 0.000001 0.000003 0.000002 8.650836 41.668341 -1.091494 38.349941 51.451098 -24.157653 6.360001 47.852408 -24.426455 6.504767 7.474685 21.444697 55.149570 18.649543 -29.698311 -0.442558 -14.180536 7.313146 21.666960 -29.244490 9.142356 -0.000002 -0.000005 -0.000000 5.673401 7.585024 36.844134 1.050485 3.824497 68.900230 0.499550 3.026035 62.196481 -0.000004 -0.000003 -0.000002 -0.125699 1.886082 45.000753 -1.168979 3.204667 68.417636 -0.936434 1.813655 41.107565 -0.000000 0.000000 0.000001 -5.311984 1.216649 58.508794 -0.745226 1.667587 48.011281 -0.816435 1.840621 53.666565 0.000001 -0.000000 -0.000003 -7.756815 -9.376440 47.263977 -0.526056 1.541588 45.600539 -0.508178 0.803442 24.986610 0.000003 -0.000000 0.000002 -64.281895 6.724174 -22.699693 38.511311 -30.556115 -7.255891 35.290201 0.960415 -9.176567 -3.180852 2.103571 -1.074144 0.000000 0.000000 0.000000 61.725027 -27.916052 1.413510 30.713896 2.379329 6.778504 -22.861707 -4.278308 16.678176 -59.815750 -6.309622 1.769017 -0.000000 0.000001 0.000000 
10.624844 59.753189 12.050678 -16.636065 53.006568 22.620951 11.710498 14.819938 1.568014 7.901568 18.238232 1.113182 -4.536259 17.606706 4.961408 25.636398 -24.998144 24.111439 -30.105633 -24.641110 0.407020 0.000001 0.000000 0.000001 -8.939218 30.198162 15.541414 38.391602 28.295037 -61.984827 -41.720114 6.420495 -10.151735 -0.478136 8.103787 31.642043 18.457989 -9.513809 13.216587 -1.150286 11.255275 -8.400945 5.706399 8.483157 -0.820564 -0.000000 0.000006 0.000001 2.010410 6.305942 -22.386503 -0.821094 -0.210137 -16.746466 -2.234670 0.020141 -34.673848 -0.000001 -0.000005 0.000004 3.024633 7.939036 -14.103466 -0.701769 -0.566378 -18.895872 -0.728780 -0.703930 -22.058513 -0.000001 0.000003 0.000002 1.884599 4.663390 -4.597361 0.465333 -1.003122 -12.986905 0.630489 -1.350176 -16.553802 -0.000003 0.000002 0.000004 -1.229954 -5.774829 -0.191937 0.132013 -0.195480 -4.602219 0.051575 -0.448568 -7.568164 -0.000003 0.000005 0.000002 3.706468 38.745372 5.694330 54.079426 48.029258 -32.440318 16.898329 44.846920 -47.336988 4.497071 12.259891 23.227417 55.149570 18.649541 -29.698301 -0.442552 -14.180539 7.313146 21.666960 -29.244493 9.142356 0.000000 -0.000001 0.000001 5.673403 7.585021 36.844134 1.050483 3.824495 68.900223 0.499552 3.026038 62.196481 -0.000004 -0.000001 0.000001 -0.125699 1.886076 45.000756 -1.168981 3.204672 68.417643 -0.936433 1.813656 41.107565 0.000001 0.000002 -0.000001 -5.311985 1.216647 58.508801 -0.745228 1.667587 48.011278 -0.816433 1.840621 53.666565 -0.000001 0.000001 -0.000005 -7.756811 -9.376439 47.263970 -0.526057 1.541588 45.600539 -0.508177 0.803441 24.986610 0.000001 -0.000003 0.000007 -65.620011 5.652987 -21.888226 39.370491 -29.685826 -6.335621 34.680405 0.765553 -9.961015 -3.160531 2.105159 -1.222958 0.000000 0.000000 -0.000000 59.582745 -27.991717 0.168629 32.449153 3.275966 6.958324 -23.444051 -3.683696 15.889750 -59.818776 -6.305015 1.774579 -0.000000 -0.000000 0.000000 
10.451122 59.953362 11.638764 -15.201441 51.943107 20.601959 11.916762 14.202760 1.377208 8.265760 17.227016 0.956525 -4.107798 16.651315 4.581214 26.635088 -24.856515 23.934474 -29.832023 -24.617755 0.089922 -0.000001 0.000000 -0.000000 -8.331570 29.021733 14.691903 39.004516 24.729299 -65.217836 -40.570364 5.907396 -12.000361 -0.443337 7.532756 33.098462 18.457990 -9.513810 13.216588 -1.150267 11.255247 -8.400967 5.706370 8.483160 -0.820541 -0.000000 -0.000001 0.000001 2.010418 6.305955 -22.386519 -0.821106 -0.210169 -16.746495 -2.234659 0.020174 -34.673858 0.000001 0.000003 -0.000001 3.024622 7.938992 -14.103482 -0.701757 -0.566330 -18.895882 -0.728774 -0.703943 -22.058477 0.000001 -0.000001 0.000003 1.884602 4.663347 -4.597376 0.465352 -1.003076 -12.986908 0.630511 -1.350202 -16.553793 0.000001 0.000000 0.000004 -1.229945 -5.774847 -0.191937 0.132037 -0.195525 -4.602200 0.051551 -0.448561 -7.568168 -0.000003 0.000003 0.000001 0.857361 36.006162 9.828333 67.217920 43.139106 -37.665956 20.233384 38.028509 -64.405897 0.733302 13.847863 27.643707 55.149567 18.649548 -29.698305 -0.442553 -14.180541 7.313143 21.666955 -29.244497 9.142358 -0.000000 -0.000003 -0.000001 5.673404 7.585024 36.844130 1.050483 3.824499 68.900223 0.499549 3.026035 62.196481 -0.000001 0.000000 -0.000001 -0.125697 1.886079 45.000756 -1.168980 3.204666 68.417643 -0.936431 1.813657 41.107572 0.000001 0.000001 -0.000004 -5.311987 1.216649 58.508801 -0.745226 1.667587 48.011275 -0.816436 1.840622 53.666565 0.000002 -0.000001 -0.000002 -7.756814 -9.376441 47.263977 -0.526056 1.541584 45.600542 -0.508179 0.803442 24.986610 -0.000000 0.000000 0.000004 -66.433917 4.584116 -20.977936 39.657233 -28.701182 -5.616461 34.373969 0.493088 -10.454563 -3.142239 2.106618 -1.384834 0.000000 -0.000000 0.000000 57.078750 -28.132805 -1.490728 34.203955 4.273344 7.124335 -23.618448 -2.923014 15.166237 -59.821727 -6.300261 1.780188 -0.000000 0.000000 0.000000 
10.415575 60.427765 11.223665 -13.710739 49.967987 18.523273 12.094932 13.364998 1.311137 8.575756 16.068244 0.984664 -3.725816 15.513603 4.350474 27.610374 -24.423795 23.334482 -29.520532 -24.553099 0.272632 0.000002 -0.000002 0.000001 -7.949873 28.253510 14.154167 38.067885 19.884728 -65.786422 -40.542555 4.297752 -14.349225 0.017283 6.867193 29.861710 18.457989 -9.513807 13.216584 -1.150279 11.255236 -8.400957 5.706377 8.483180 -0.820557 -0.000001 -0.000000 -0.000001 2.010422 6.305936 -22.386514 -0.821095 -0.210138 -16.746463 -2.234681 0.020157 -34.673872 0.000003 0.000000 -0.000006 3.024644 7.938994 -14.103460 -0.701764 -0.566348 -18.895852 -0.728744 -0.703926 -22.058533 0.000002 0.000001 0.000005 1.884622 4.663345 -4.597376 0.465372 -1.003108 -12.986887 0.630477 -1.350190 -16.553836 -0.000003 -0.000000 0.000004 -1.229928 -5.774881 -0.191936 0.132037 -0.195518 -4.602210 0.051538 -0.448558 -7.568166 -0.000003 -0.000001 0.000003 -0.329437 34.205861 11.722672 76.785157 40.621041 -42.319388 19.173688 32.202307 -71.747524 -3.591783 14.076539 30.889554 55.149570 18.649543 -29.698301 -0.442554 -14.180539 7.313147 21.666957 -29.244493 9.142358 0.000000 -0.000001 -0.000000 5.673398 7.585025 36.844137 1.050486 3.824494 68.900223 0.499555 3.026036 62.196481 -0.000003 -0.000003 -0.000001 -0.125696 1.886078 45.000759 -1.168980 3.204670 68.417636 -0.936432 1.813657 41.107572 0.000000 0.000000 -0.000004 -5.311982 1.216649 58.508801 -0.745226 1.667586 48.011275 -0.816435 1.840622 53.666565 0.000001 -0.000000 -0.000002 -7.756812 -9.376446 47.263973 -0.526057 1.541584 45.600542 -0.508180 0.803444 24.986610 -0.000003 -0.000002 0.000005 -66.733421 3.733427 -19.408124 40.189315 -27.541034 -5.076936 33.616777 0.384858 -10.397162 -3.153110 2.108698 -1.488000 0.000000 -0.000000 -0.000000 53.901647 -28.339739 -4.288847 36.044944 5.606084 7.294528 -23.420061 -1.802043 14.291421 -59.824903 -6.295538 1.785552 -0.000000 -0.000000 -0.000000 
